<?xml version="1.0" encoding="UTF-8" standalone="no"?>
<svg width="48px" height="30px" viewBox="0 0 48 30" version="1.1" xmlns="http://www.w3.org/2000/svg" xmlns:xlink="http://www.w3.org/1999/xlink">
    <!-- Generator: Sketch 39.1 (31720) - http://www.bohemiancoding.com/sketch -->
    <title>Behance-black</title>
    <desc>Created with Sketch.</desc>
    <defs></defs>
    <g id="Page-1" stroke="none" stroke-width="1" fill="none" fill-rule="evenodd">
        <g id="Lading-Page-3" transform="translate(-746.000000, -1210.000000)" fill="#7B7B7B">
            <g id="About" transform="translate(0.000000, 750.000000)">
                <g id="Social-Media" transform="translate(552.000000, 451.000000)">
                    <path d="M224.671768,14.0060325 L237.382997,14.0060325 L237.382997,10.3642691 L224.671768,10.3642691 L224.671768,14.0060325 L224.671768,14.0060325 Z M227.683065,21.9522042 C226.873091,22.7763341 226.362271,23.8928074 226.153427,25.3016241 L236.039626,25.3016241 C235.935204,23.7981439 235.421562,22.662181 234.51281,21.8798144 C233.59277,21.1030162 232.461064,20.7160093 231.106404,20.7160093 C229.638855,20.7160093 228.493039,21.1280742 227.683065,21.9522042 L227.683065,21.9522042 L227.683065,21.9522042 Z M236.26258,17.063109 C237.79504,17.736891 239.056567,18.8060325 240.049985,20.2649652 C240.955914,21.5512761 241.537289,23.0436195 241.802576,24.7392111 C241.957798,25.7303944 242.019886,27.1670534 241.994487,29.0352668 L226.012317,29.0352668 C226.108272,31.2041763 226.864624,32.7271462 228.309595,33.5986079 C229.18448,34.1415313 230.237164,34.4143852 231.473291,34.4143852 C232.77433,34.4143852 233.838302,34.0830626 234.653921,33.4232019 C235.102652,33.0640371 235.497761,32.5684455 235.836426,31.9336427 L241.69251,31.9336427 C241.537289,33.2143852 240.826092,34.5201856 239.567387,35.8454756 C237.603129,37.9475638 234.851476,39 231.315248,39 C228.394261,39 225.817584,38.1146172 223.590862,36.3382831 C221.35285,34.5647332 220.240899,31.67471 220.240899,27.6765661 C220.240899,23.9262181 221.248428,21.050116 223.260663,19.0482599 C225.278543,17.0519722 227.889086,16.0468677 231.103582,16.0468677 C233.014217,16.0468677 234.732943,16.3865429 236.26258,17.063109 L236.26258,17.063109 L236.26258,17.063109 Z M199.912528,25.3795824 L199.912528,33.1837587 L207.114805,33.1837587 C208.401733,33.1837587 209.406439,33.0111369 210.120458,32.6686775 C211.421496,32.0283063 212.070604,30.8143852 212.070604,29.0157773 C212.070604,27.4900232 211.444074,26.4459397 210.182546,25.875174 C209.476994,25.5577726 208.486399,25.3907193 207.216405,25.3795824 L199.912528,25.3795824 L199.912528,25.3795824 Z M199.912528,14.0812065 L199.912528,20.537819 L207.126094,20.537819 C208.410199,20.537819 209.457239,20.2955916 210.264391,19.8111369 C211.065898,19.3266821 211.469474,18.4691415 211.469474,17.2440835 C211.469474,15.8770302 210.938899,14.9777262 209.877748,14.537819 C208.957708,14.2343387 207.789313,14.0812065 206.369742,14.0812065 L199.912528,14.0812065 L199.912528,14.0812065 Z M216.021697,12.1183295 C216.927626,13.362877 217.382002,14.849652 217.382002,16.5842227 C217.382002,18.3689095 216.927626,19.8083527 216.010408,20.8941995 C215.496766,21.5011601 214.743236,22.0580046 213.746996,22.5591647 C215.259701,23.1048724 216.399873,23.9651972 217.17598,25.1429234 C217.943621,26.3178654 218.330264,27.7489559 218.330264,29.4306265 C218.330264,31.1651972 217.889999,32.7215777 217.006648,34.0969838 C216.447851,35.0074246 215.747943,35.7758701 214.906924,36.399536 C213.961484,37.1150812 212.846712,37.6023202 211.556962,37.8696056 C210.267213,38.1341067 208.873042,38.262181 207.365982,38.262181 L194,38.262181 L194,9 L208.334,9 C211.952072,9.05290023 214.511815,10.0914153 216.021697,12.1183295 L216.021697,12.1183295 L216.021697,12.1183295 Z" id="Behance"></path>
                </g>
            </g>
        </g>
    </g>
</svg>