<?xml version="1.0" encoding="UTF-8" standalone="no"?>
<svg width="46px" height="46px" viewBox="0 0 46 46" version="1.1" xmlns="http://www.w3.org/2000/svg" xmlns:xlink="http://www.w3.org/1999/xlink">
    <!-- Generator: Sketch 39.1 (31720) - http://www.bohemiancoding.com/sketch -->
    <title>Dribbble-black</title>
    <desc>Created with Sketch.</desc>
    <defs></defs>
    <g id="Page-1" stroke="none" stroke-width="1" fill="none" fill-rule="evenodd">
        <g id="Lading-Page-3" transform="translate(-650.000000, -1202.000000)" fill="#7B7B7B">
            <g id="About" transform="translate(0.000000, 750.000000)">
                <g id="Social-Media" transform="translate(552.000000, 451.000000)">
                    <path d="M131.977303,40.2902581 C131.777151,39.1057087 130.730405,33.3398201 128.152761,26.2622729 C134.495443,25.2481039 139.988828,26.9870657 140.394543,27.1195837 C139.520903,32.5933917 136.386076,37.312658 131.977303,40.2902581 L131.977303,40.2902581 L131.977303,40.2902581 Z M121.001352,43.6437768 C116.246369,43.6437768 111.886282,41.9534952 108.486388,39.1408666 C108.746046,39.3518137 108.927265,39.4843318 108.927265,39.4843318 C108.927265,39.4843318 112.692303,31.2736198 124.341742,27.2142395 C124.385018,27.1980128 124.430999,27.187195 124.474275,27.1736728 C127.238549,34.3539891 128.377256,40.3686872 128.669371,42.0860133 C126.313518,43.08666 123.719645,43.6437768 121.001352,43.6437768 L121.001352,43.6437768 L121.001352,43.6437768 Z M101.356618,23.9986478 C101.356618,23.7904051 101.367437,23.5848668 101.372846,23.3793286 C101.721762,23.3874419 111.426471,23.6065024 121.539601,20.5802222 C122.102193,21.6809336 122.640442,22.8032806 123.13271,23.9202187 C122.873052,23.9905344 122.616099,24.0689635 122.359146,24.1555059 C111.759158,27.5793403 106.382078,37.1152331 106.382078,37.1152331 C106.382078,37.1152331 106.390192,37.1233465 106.390192,37.1260509 C103.260775,33.645423 101.356618,29.0451526 101.356618,23.9986478 L101.356618,23.9986478 L101.356618,23.9986478 Z M112.619274,6.23852078 C112.881637,6.58739491 116.514141,11.5121994 119.914035,17.553942 C110.482507,20.0609677 102.295173,19.9609031 101.778562,19.9527897 C103.052508,13.8677759 107.139413,8.82397554 112.619274,6.23852078 L112.619274,6.23852078 L112.619274,6.23852078 Z M116.295055,4.9295667 C116.295055,4.93227115 116.29235,4.9349756 116.29235,4.9349756 C116.29235,4.9349756 116.268007,4.9403845 116.232845,4.9457934 C116.254483,4.9403845 116.273417,4.93768005 116.295055,4.9295667 L116.295055,4.9295667 L116.295055,4.9295667 Z M133.973423,9.26209654 C133.924737,9.3351167 131.128006,13.5946264 123.711531,16.3720971 C120.354913,10.2032453 116.665608,5.30278088 116.370788,4.91334 C117.855706,4.55364807 119.405539,4.35892763 121.001352,4.35892763 C125.972717,4.35892763 130.514024,6.21418073 133.973423,9.26209654 L133.973423,9.26209654 L133.973423,9.26209654 Z M140.637973,23.8039273 C140.353972,23.741725 133.705651,22.3110706 126.957253,23.1602681 C126.816605,22.8249162 126.678662,22.4868599 126.532604,22.1488036 C126.124184,21.1860192 125.683307,20.2340526 125.226201,19.2983127 C132.983477,16.131401 136.131828,11.5798107 136.169695,11.5257217 C138.923149,14.8711271 140.591992,19.144159 140.637973,23.8039273 L140.637973,23.8039273 L140.637973,23.8039273 Z M143.53478,19.3713328 C143.231846,17.8947028 142.777445,16.4370039 142.19051,15.0469163 C141.617099,13.6838732 140.900335,12.3695103 140.069971,11.1416897 C139.250426,9.92468693 138.303757,8.77799988 137.265126,7.73949086 C136.22379,6.69827738 135.079673,5.75442413 133.859822,4.93227115 C132.631857,4.09930037 131.31734,3.38802987 129.954137,2.80927744 C128.563885,2.22511611 127.10872,1.77076842 125.631916,1.4705744 C124.117246,1.15956258 122.559299,1 121.001352,1 C119.440701,1 117.882754,1.15956258 116.368084,1.4705744 C114.89128,1.77076842 113.436115,2.22511611 112.045863,2.80927744 C110.68266,3.38802987 109.368143,4.09930037 108.137473,4.93227115 C106.920327,5.75442413 105.77621,6.69827738 104.734874,7.73949086 C103.696243,8.77799988 102.752278,9.92468693 101.930029,11.1416897 C101.099665,12.3695103 100.382901,13.6838732 99.8094902,15.0469163 C99.2198506,16.4370039 98.7681543,17.8947028 98.4652202,19.3713328 C98.1568766,20.8831207 98,22.4408842 98,23.9986478 C98,25.5618202 98.1568766,27.1195837 98.4652202,28.6340761 C98.7681543,30.1107061 99.2198506,31.5657005 99.8094902,32.9530837 C100.382901,34.3161268 101.099665,35.6358986 101.930029,36.8637192 C102.752278,38.080722 103.696243,39.2220001 104.734874,40.265918 C105.77621,41.3044271 106.920327,42.2455759 108.137473,43.0704333 C109.368143,43.9006996 110.68266,44.6146746 112.045863,45.1907226 C113.436115,45.7802928 114.89128,46.2292316 116.368084,46.5294256 C117.882754,46.8431419 119.440701,47 121.001352,47 C122.559299,47 124.117246,46.8431419 125.631916,46.5294256 C127.10872,46.2292316 128.563885,45.7802928 129.954137,45.1907226 C131.31734,44.6146746 132.631857,43.9006996 133.859822,43.0704333 C135.079673,42.2455759 136.22379,41.3044271 137.265126,40.265918 C138.303757,39.2220001 139.250426,38.080722 140.069971,36.8637192 C140.900335,35.6358986 141.617099,34.3161268 142.19051,32.9530837 C142.777445,31.5657005 143.231846,30.1107061 143.53478,28.6340761 C143.843123,27.1195837 144,25.5618202 144,23.9986478 C144,22.4408842 143.843123,20.8831207 143.53478,19.3713328 L143.53478,19.3713328 L143.53478,19.3713328 Z" id="Dribbble"></path>
                </g>
            </g>
        </g>
    </g>
</svg>