<?xml version="1.0" encoding="UTF-8" standalone="no"?>
<svg width="44px" height="40px" viewBox="0 0 44 40" version="1.1" xmlns="http://www.w3.org/2000/svg" xmlns:xlink="http://www.w3.org/1999/xlink">
    <!-- Generator: Sketch 39.1 (31720) - http://www.bohemiancoding.com/sketch -->
    <title>LinkedIn-black</title>
    <desc>Created with Sketch.</desc>
    <defs></defs>
    <g id="Page-1" stroke="none" stroke-width="1" fill="none" fill-rule="evenodd">
        <g id="Lading-Page-3" transform="translate(-844.000000, -1205.000000)" fill="#7B7B7B">
            <g id="About" transform="translate(0.000000, 750.000000)">
                <g id="Social-Media" transform="translate(552.000000, 451.000000)">
                    <path d="M336,44 L326.2754,44 L326.2754,29.9384005 C326.2754,26.257796 324.754233,23.7451495 321.409219,23.7451495 C318.850659,23.7451495 317.427799,25.4407377 316.765522,27.0748543 C316.517168,27.6613946 316.555974,28.478453 316.555974,29.2955113 L316.555974,44 L306.921919,44 C306.921919,44 307.046096,19.0912467 306.921919,16.8270474 L316.555974,16.8270474 L316.555974,21.0916309 C317.125118,19.2269962 320.203669,16.5657937 325.116416,16.5657937 C331.21143,16.5657937 336,20.4743549 336,28.8908241 L336,44 L336,44 Z M297.17921,13.4281872 L297.117121,13.4281872 C294.0127,13.4281872 292,11.3509637 292,8.71793558 C292,6.03368124 294.072201,4 297.238711,4 C300.402634,4 302.348071,6.02855862 302.41016,8.71025165 C302.41016,11.3432798 300.402634,13.4281872 297.17921,13.4281872 L297.17921,13.4281872 L297.17921,13.4281872 Z M293.109831,16.8270474 L301.685795,16.8270474 L301.685795,44 L293.109831,44 L293.109831,16.8270474 L293.109831,16.8270474 Z" id="LinkedIn"></path>
                </g>
            </g>
        </g>
    </g>
</svg>