<?xml version="1.0" encoding="UTF-8" standalone="no"?>
<svg width="42px" height="32px" viewBox="0 0 42 32" version="1.1" xmlns="http://www.w3.org/2000/svg" xmlns:xlink="http://www.w3.org/1999/xlink">
    <!-- Generator: Sketch 39.1 (31720) - http://www.bohemiancoding.com/sketch -->
    <title>Fill 185</title>
    <desc>Created with Sketch.</desc>
    <defs></defs>
    <g id="Page-1" stroke="none" stroke-width="1" fill="none" fill-rule="evenodd">
        <g id="Lading-Page-3" transform="translate(-288.000000, -2598.000000)" fill="#FFFFFF">
            <g id="Contato" transform="translate(0.000000, 2360.000000)">
                <g id="contatos" transform="translate(196.000000, 238.000000)">
                    <g id="Email">
                        <path d="M113,19.57725 L108.64775,15.9691875 L93.4634375,31.513125 L132.150687,31.513125 L117.245937,15.9429375 L113,19.57725 L113,19.57725 Z M119.418125,14.293125 L133.85825,29.3068125 C133.940937,29.0154375 134,28.7135625 134,28.394625 L134,2.443875 L119.418125,14.293125 L119.418125,14.293125 Z M92,2.3835 L92,28.394625 C92,28.7135625 92.0590625,29.0154375 92.14175,29.3068125 L106.630437,14.3416875 L92,2.3835 L92,2.3835 Z M132.6875,0 L93.3125,0 L113,15.7749375 L132.6875,0 L132.6875,0 Z" id="Fill-185"></path>
                    </g>
                </g>
            </g>
        </g>
    </g>
</svg>