<?xml version="1.0" encoding="UTF-8" standalone="no"?>
<svg width="42px" height="42px" viewBox="0 0 42 42" version="1.1" xmlns="http://www.w3.org/2000/svg" xmlns:xlink="http://www.w3.org/1999/xlink">
    <!-- Generator: Sketch 39.1 (31720) - http://www.bohemiancoding.com/sketch -->
    <title>Fill 178</title>
    <desc>Created with Sketch.</desc>
    <defs></defs>
    <g id="Page-1" stroke="none" stroke-width="1" fill="none" fill-rule="evenodd">
        <g id="Lading-Page-3" transform="translate(-287.000000, -2715.000000)" fill="#FFFFFF">
            <g id="Contato" transform="translate(0.000000, 2360.000000)">
                <g id="contatos" transform="translate(196.000000, 238.000000)">
                    <g id="Telefone" transform="translate(39.000000, 117.000000)">
                        <path d="M92.747187,4.68091262 L88.8589796,0.803513321 C87.7862775,-0.267837774 86.0448254,-0.267837774 84.9707723,0.803513321 L79.1384612,8.55831191 C78.2481455,9.87014282 78.0657591,11.3643601 79.1384612,12.4357112 L81.5189412,14.8094361 C79.7545219,17.173704 77.6361378,19.7514315 75.2516048,22.1292094 C72.5549885,24.8177198 69.5557458,27.2616972 66.8591294,29.2692984 L64.558359,26.9766341 C63.4856569,25.905283 61.9873866,26.0863183 60.6701517,26.9766341 L52.8937369,32.792733 C51.5900121,33.6911548 51.8196838,35.5987812 52.8937369,36.6701323 L56.7819443,40.5461806 C58.9300505,42.6888828 61.7225886,42.0025696 64.558359,40.5461806 C64.558359,40.5461806 73.1413269,35.7419883 80.4894714,28.4141089 C87.4012396,21.5212549 92.747187,12.4357112 92.747187,12.4357112 C93.8617704,9.37837511 94.8952933,6.8222638 92.747187,4.68091262" id="Fill-178"></path>
                    </g>
                </g>
            </g>
        </g>
    </g>
</svg>